<?xml version="1.0" encoding="UTF-8"?>
<!DOCTYPE svg PUBLIC "-//W3C//DTD SVG 1.1//EN" "http://www.w3.org/Graphics/SVG/1.1/DTD/svg11.dtd">
<!-- Creator: CorelDRAW -->
<svg xmlns="http://www.w3.org/2000/svg" xml:space="preserve" width="6.82666in" height="6.82666in" style="shape-rendering:geometricPrecision; text-rendering:geometricPrecision; image-rendering:optimizeQuality; fill-rule:evenodd; clip-rule:evenodd"
viewBox="0 0 6.82666 6.82666"
 xmlns:xlink="http://www.w3.org/1999/xlink">
 <defs>
  <style type="text/css">
   <![CDATA[
    .fil3 {fill:none}
    .fil1 {fill:#424242}
    .fil0 {fill:#424242;fill-rule:nonzero}
    .fil2 {fill:#64B5F6;fill-rule:nonzero}
   ]]>
  </style>
 </defs>
 <g id="Layer_x0020_1">
  <metadata id="CorelCorpID_0Corel-Layer"/>
  <polygon class="fil0" points="0.853327,5.08672 5.78002,5.08672 5.78002,5.35567 0.853327,5.35567 "/>
  <path class="fil0" d="M4.03898 1.05926l0.14822 0 0.0755827 0.243807 0.0700433 -0.243807 0.138331 0 -0.145276 0.391437c-0.0164803,0.0446181 -0.0334291,0.0747559 -0.0507402,0.0902953 -0.0243661,0.0221339 -0.0614567,0.0332008 -0.111366,0.0332008 -0.020252,0 -0.0514488,-0.00283071 -0.0938268,-0.0083622l-0.0109488 -0.0979449c0.0201299,0.00647638 0.0427283,0.00964961 0.0675709,0.00964961 0.0164803,0 0.0299016,-0.00376378 0.0401457,-0.0112992 0.0102441,-0.00765354 0.0189528,-0.021189 0.0260157,-0.0407323l-0.153752 -0.366244z"/>
  <polygon class="fil0" points="5.34576,4.17948 5.51234,4.17948 5.57061,4.28155 5.63819,4.17948 5.79312,4.17948 5.6682,4.35395 5.80206,4.54573 5.63819,4.54573 5.57061,4.42777 5.49091,4.54573 5.33881,4.54573 5.47196,4.35395 "/>
  <polygon class="fil0" points="1.28973,4.98448 1.28973,5.45791 1.18215,5.45791 1.18215,4.98448 "/>
  <polygon class="fil0" points="1.94866,4.98448 1.94866,5.45791 1.84107,5.45791 1.84107,4.98448 "/>
  <polygon class="fil0" points="4.51117,4.98448 4.51117,5.45791 4.40358,5.45791 4.40358,4.98448 "/>
  <polygon class="fil0" points="5.17009,4.98448 5.17009,5.45791 5.06251,5.45791 5.06251,4.98448 "/>
  <polygon class="fil0" points="3.45115,1.32289 3.45115,5.51406 3.18219,5.51406 3.18219,1.32289 "/>
  <polygon class="fil1" points="3.88183,1.60546 2.75151,1.60546 3.31667,1.04031 "/>
  <polygon class="fil0" points="3.08701,2.63631 3.54633,2.63631 3.54633,2.74389 3.08701,2.74389 "/>
  <polygon class="fil0" points="3.08701,3.29523 3.54633,3.29523 3.54633,3.40281 3.08701,3.40281 "/>
  <polygon class="fil0" points="3.08701,3.95415 3.54633,3.95415 3.54633,4.06174 3.08701,4.06174 "/>
  <polygon class="fil0" points="3.08701,4.61308 3.54633,4.61308 3.54633,4.72067 3.08701,4.72067 "/>
  <polygon class="fil0" points="3.08701,2.01348 3.54633,2.01348 3.54633,2.12106 3.08701,2.12106 "/>
  <polygon class="fil1" points="5.40817,5.78635 5.40817,4.65604 5.97333,5.22119 "/>
  <path class="fil2" d="M5.13456 4.85969c-0.410272,0.199591 -0.648937,0.0301063 -0.815461,-0.312185 -0.108287,-0.222591 -0.178512,-0.519799 -0.251118,-0.827094 -0.132646,-0.56139 -0.276783,-1.16017 -0.649409,-1.2492 -0.0677244,-0.016185 -0.152965,-0.0152441 -0.219941,0.00280709 -0.363969,0.0981378 -0.503965,0.690583 -0.635287,1.24639 -0.0726024,0.307295 -0.142831,0.604504 -0.251118,0.827094 -0.166524,0.342291 -0.405189,0.511776 -0.815461,0.312185l0.116614 -0.241634c0.226382,0.110126 0.360996,0.0106024 0.457209,-0.187165 0.095063,-0.195409 0.16198,-0.478606 0.231161,-0.771413 0.159366,-0.674476 0.329709,-1.3952 0.913307,-1.46238 0.0639528,-0.00735433 0.148969,-0.0068937 0.212217,0.00135039 0.574744,0.0749331 0.743945,0.790811 0.902303,1.46103 0.0691811,0.292807 0.136102,0.576004 0.231161,0.771413 0.0962126,0.197768 0.230827,0.297291 0.457209,0.187165l0.116614 0.241634z"/>
 </g>
 <rect class="fil3" width="6.82666" height="6.82666"/>
</svg>
